# xmcd
#
# Track frame offsets:
#	150
#	20799
#	39171
#	76444
#	92533
#	119298
#	146139
#	171450
#	203468
#	233522
#	266824
#	303536
#	326831
#
# Disc length: 4728 seconds
#
# Revision: 0
# Processed by: cddbd v1.5.2PL0 Copyright (c) Steve Scherf et al.
# Submitted via: EZCDAudioConverter 2.1.7.1
#
DISCID=b012760d
DTITLE=V/A - The Red Collection 1/2
DYEAR=1900
DGENRE=
TTITLE0=Hermigervill - Solitaire
TTITLE1=Atella X Frøder - Closer To Life
TTITLE2=Antenna - Love 66
TTITLE3=Else Born - This Time/Remember
TTITLE4=Max Essa - Your Cathedrals Re-Imagined
TTITLE5=Satin Jackets featuring Niya Wells - Never Enough
TTITLE6=Blue Motel - LWTK (Lunch With The King)
TTITLE7=Nteibint - Love
TTITLE8=Shmlss - Train Ride To The Middle East
TTITLE9=Gemini Brothers - Travel Inside
TTITLE10=Rey and Kjavik - Akya
TTITLE11=This Soft Machine - Absence Of Rhythm
TTITLE12=Horixon featuring Birsen - The Beekeeper [Atella's Sand In Shoe Mix]
EXTD=
EXTT0=
EXTT1=
EXTT2=
EXTT3=
EXTT4=
EXTT5=
EXTT6=
EXTT7=
EXTT8=
EXTT9=
EXTT10=
EXTT11=
EXTT12=
PLAYORDER=
